<svg width="133" height="134" viewBox="0 0 133 134" fill="none" xmlns="http://www.w3.org/2000/svg">
<g filter="url(#filter0_d_307_17)">
<circle cx="66.5" cy="63.0581" r="62.5" fill="#AFF514"/>
</g>
<path d="M110.292 45.363C109.293 43.0548 108.294 40.7465 107.296 38.4382C107.26 38.3558 107.224 38.2734 107.189 38.1909C107.168 38.1438 107.148 38.0967 107.128 38.0496C107.107 38.0025 107.087 37.9554 107.066 37.9083C107.046 37.8612 107.026 37.8141 107.005 37.767C105.543 34.387 104.081 31.0071 102.613 27.6154L99.6708 26.4417L96.4921 25.1745C92.5204 26.8929 88.5604 28.6062 84.5887 30.3246C83.4691 30.809 82.2673 30.9095 81.1538 30.6642C81.1082 30.656 81.0627 30.6477 81.0289 30.6344C80.9378 30.6178 80.8416 30.5896 80.7623 30.5679C80.7286 30.5546 80.683 30.5463 80.6493 30.533C80.5362 30.498 80.4231 30.463 80.305 30.4163C80.2881 30.4096 80.2881 30.4096 80.2712 30.4029C80.1361 30.3495 80.0129 30.291 79.8896 30.2325C79.8727 30.2258 79.8727 30.2258 79.8559 30.2191C79.7495 30.1673 79.6262 30.1088 79.5265 30.04C79.5096 30.0334 79.4877 30.0149 79.4708 30.0082C79.3593 29.9446 79.2478 29.881 79.1431 29.8005C79.138 29.7887 79.1262 29.7938 79.1262 29.7938C78.7714 29.5559 78.4366 29.2673 78.1388 28.9347C77.7108 28.4628 77.35 27.9198 77.085 27.3074C77.085 27.3074 77.0595 27.2486 77.029 27.1779C76.635 26.2997 76.3717 25.6587 76.3207 25.5409C76.2137 25.2936 75.8892 24.5112 75.1911 22.8978C75.1708 22.8507 75.1504 22.8036 75.13 22.7565C75.1096 22.7094 75.0892 22.6623 75.0689 22.6152C74.4065 21.0842 73.4333 18.8348 72.0423 15.6198L65.9212 13.1789C60.0402 15.7233 54.1592 18.2678 48.2664 20.8173L45.8547 26.9499C46.8636 29.2817 47.8725 31.6135 48.8814 33.9454C48.9017 33.9925 48.9221 34.0396 48.9425 34.0867C48.9629 34.1338 48.9833 34.1809 49.0036 34.228C50.5119 37.7139 52.0201 41.1999 53.5283 44.6858L56.4706 45.8595L59.6493 47.1267C63.6211 45.4083 67.581 43.695 71.5527 41.9766C72.6724 41.4922 73.8741 41.3917 74.9877 41.6369C75.0332 41.6452 75.0788 41.6534 75.1125 41.6668C75.2036 41.6833 75.2998 41.7116 75.3791 41.7332C75.4129 41.7466 75.4584 41.7548 75.4922 41.7682C75.6053 41.8032 75.7183 41.8381 75.8365 41.8849C75.8534 41.8915 75.8534 41.8915 75.8702 41.8982C76.0053 41.9516 76.1286 42.0102 76.2518 42.0687C76.2687 42.0754 76.2687 42.0754 76.2856 42.082C76.392 42.1339 76.5152 42.1924 76.6149 42.2611C76.6318 42.2678 76.6538 42.2863 76.6706 42.2929C76.7821 42.3566 76.8936 42.4202 76.9984 42.5007L77.0153 42.5073C77.3701 42.7453 77.7048 43.0339 78.0026 43.3664C78.4307 43.8384 78.7915 44.3813 79.0564 44.9937C79.0564 44.9937 79.0819 45.0526 79.1125 45.1233C79.5064 46.0014 79.7698 46.6425 79.8207 46.7602C79.9226 46.9958 80.2115 47.6957 80.8178 49.0971C80.8382 49.1443 80.8586 49.1914 80.879 49.2385C80.8993 49.2856 80.9197 49.3327 80.9401 49.3798C80.9997 49.5498 81.071 49.7146 81.1541 49.8744C81.8114 51.3936 82.7642 53.5959 84.1043 56.6932L90.2254 59.1341C96.1063 56.5896 101.987 54.0452 107.88 51.4956L110.292 45.363ZM88.3993 54.8489C86.7026 50.9272 85.0008 46.9938 83.304 43.0721C82.426 41.0751 80.9897 39.5015 79.2599 38.4463C79.2379 38.4279 79.2041 38.4145 79.1873 38.4078C79.02 38.3124 78.8477 38.2052 78.6687 38.1149C78.613 38.0831 78.5573 38.0513 78.5015 38.0194C78.3394 37.9358 78.1773 37.8521 78.0085 37.7854C77.9578 37.7653 77.9072 37.7453 77.8515 37.7135C77.4192 37.523 76.9787 37.378 76.5198 37.255C76.5029 37.2484 76.486 37.2417 76.4573 37.2401C76.3443 37.2051 76.2363 37.1819 76.1165 37.1638C76.0879 37.1623 76.071 37.1556 76.0541 37.1489C73.9924 36.6847 71.7809 36.8446 69.6949 37.7472C65.7349 39.4604 61.7699 41.162 57.7981 42.8804C55.2403 36.9684 52.6774 31.0447 50.1195 25.1327L67.7507 17.5045C69.4474 21.4262 71.1442 25.3478 72.846 29.2813C73.724 31.2782 75.1604 32.8518 76.8902 33.907C76.9121 33.9255 76.9459 33.9388 76.9628 33.9455C77.13 34.041 77.3023 34.1482 77.4813 34.2385C77.537 34.2703 77.5928 34.3021 77.6485 34.3339C77.8106 34.4176 77.9728 34.5012 78.1416 34.568C78.1922 34.588 78.2428 34.6081 78.2986 34.6399C78.7308 34.8304 79.1713 34.9753 79.6303 35.0983C79.6472 35.105 79.664 35.1117 79.6927 35.1133C79.8058 35.1482 79.9137 35.1714 80.0335 35.1895C80.0622 35.1911 80.0791 35.1978 80.0959 35.2045C82.1577 35.6686 84.3691 35.5088 86.4552 34.6062C90.4151 32.8929 94.3802 31.1914 98.3519 29.473C100.91 35.385 103.473 41.3087 106.031 47.2207L88.3993 54.8489Z" fill="black"/>
<path d="M110.292 45.363C109.293 43.0548 108.294 40.7465 107.296 38.4382C107.26 38.3558 107.224 38.2734 107.189 38.1909C107.168 38.1438 107.148 38.0967 107.128 38.0496C107.107 38.0025 107.087 37.9554 107.066 37.9083C107.046 37.8612 107.026 37.8141 107.005 37.767C105.543 34.387 104.081 31.0071 102.613 27.6154L99.6708 26.4417L96.4921 25.1745C92.5204 26.8929 88.5604 28.6062 84.5887 30.3246C83.4691 30.809 82.2673 30.9095 81.1538 30.6642C81.1082 30.656 81.0627 30.6477 81.0289 30.6344C80.9378 30.6178 80.8416 30.5896 80.7623 30.5679C80.7286 30.5546 80.683 30.5463 80.6493 30.533C80.5362 30.498 80.4231 30.463 80.305 30.4163C80.2881 30.4096 80.2881 30.4096 80.2712 30.4029C80.1361 30.3495 80.0129 30.291 79.8896 30.2325C79.8727 30.2258 79.8727 30.2258 79.8559 30.2191C79.7495 30.1673 79.6262 30.1088 79.5265 30.04C79.5096 30.0334 79.4877 30.0149 79.4708 30.0082C79.3593 29.9446 79.2478 29.881 79.1431 29.8005C79.138 29.7887 79.1262 29.7938 79.1262 29.7938C78.7714 29.5559 78.4366 29.2673 78.1388 28.9347C77.7108 28.4628 77.35 27.9198 77.085 27.3074C77.085 27.3074 77.0595 27.2486 77.029 27.1779C76.635 26.2997 76.3717 25.6587 76.3207 25.5409C76.2137 25.2936 75.8892 24.5112 75.1911 22.8978C75.1708 22.8507 75.1504 22.8036 75.13 22.7565C75.1096 22.7094 75.0892 22.6623 75.0689 22.6152C74.4065 21.0842 73.4333 18.8348 72.0423 15.6198L65.9212 13.1789C60.0402 15.7233 54.1592 18.2678 48.2664 20.8173L45.8547 26.9499C46.8636 29.2817 47.8725 31.6135 48.8814 33.9454C48.9017 33.9925 48.9221 34.0396 48.9425 34.0867C48.9629 34.1338 48.9833 34.1809 49.0036 34.228C50.5119 37.7139 52.0201 41.1999 53.5283 44.6858L56.4706 45.8595L59.6493 47.1267C63.6211 45.4083 67.581 43.695 71.5527 41.9766C72.6724 41.4922 73.8741 41.3917 74.9877 41.6369C75.0332 41.6452 75.0788 41.6534 75.1125 41.6668C75.2036 41.6833 75.2998 41.7116 75.3791 41.7332C75.4129 41.7466 75.4584 41.7548 75.4922 41.7682C75.6053 41.8032 75.7183 41.8381 75.8365 41.8849C75.8534 41.8915 75.8534 41.8915 75.8702 41.8982C76.0053 41.9516 76.1286 42.0102 76.2518 42.0687C76.2687 42.0754 76.2687 42.0754 76.2856 42.082C76.392 42.1339 76.5152 42.1924 76.6149 42.2611C76.6318 42.2678 76.6538 42.2863 76.6706 42.2929C76.7821 42.3566 76.8936 42.4202 76.9984 42.5007L77.0153 42.5073C77.3701 42.7453 77.7048 43.0339 78.0026 43.3664C78.4307 43.8384 78.7915 44.3813 79.0564 44.9937C79.0564 44.9937 79.0819 45.0526 79.1125 45.1233C79.5064 46.0014 79.7698 46.6425 79.8207 46.7602C79.9226 46.9958 80.2115 47.6957 80.8178 49.0971C80.8382 49.1443 80.8586 49.1914 80.879 49.2385C80.8993 49.2856 80.9197 49.3327 80.9401 49.3798C80.9997 49.5498 81.071 49.7146 81.1541 49.8744C81.8114 51.3936 82.7642 53.5959 84.1043 56.6932L90.2254 59.1341C96.1063 56.5896 101.987 54.0452 107.88 51.4956L110.292 45.363ZM88.3993 54.8489C86.7026 50.9272 85.0008 46.9938 83.304 43.0721C82.426 41.0751 80.9897 39.5015 79.2599 38.4463C79.2379 38.4279 79.2041 38.4145 79.1873 38.4078C79.02 38.3124 78.8477 38.2052 78.6687 38.1149C78.613 38.0831 78.5573 38.0513 78.5015 38.0194C78.3394 37.9358 78.1773 37.8521 78.0085 37.7854C77.9578 37.7653 77.9072 37.7453 77.8515 37.7135C77.4192 37.523 76.9787 37.378 76.5198 37.255C76.5029 37.2484 76.486 37.2417 76.4573 37.2401C76.3443 37.2051 76.2363 37.1819 76.1165 37.1638C76.0879 37.1623 76.071 37.1556 76.0541 37.1489C73.9924 36.6847 71.7809 36.8446 69.6949 37.7472C65.7349 39.4604 61.7699 41.162 57.7981 42.8804C55.2403 36.9684 52.6774 31.0447 50.1195 25.1327L67.7507 17.5045C69.4474 21.4262 71.1442 25.3478 72.846 29.2813C73.724 31.2782 75.1604 32.8518 76.8902 33.907C76.9121 33.9255 76.9459 33.9388 76.9628 33.9455C77.13 34.041 77.3023 34.1482 77.4813 34.2385C77.537 34.2703 77.5928 34.3021 77.6485 34.3339C77.8106 34.4176 77.9728 34.5012 78.1416 34.568C78.1922 34.588 78.2428 34.6081 78.2986 34.6399C78.7308 34.8304 79.1713 34.9753 79.6303 35.0983C79.6472 35.105 79.664 35.1117 79.6927 35.1133C79.8058 35.1482 79.9137 35.1714 80.0335 35.1895C80.0622 35.1911 80.0791 35.1978 80.0959 35.2045C82.1577 35.6686 84.3691 35.5088 86.4552 34.6062C90.4151 32.8929 94.3802 31.1914 98.3519 29.473C100.91 35.385 103.473 41.3087 106.031 47.2207L88.3993 54.8489Z" fill="black"/>
<path d="M110.292 45.363C109.293 43.0548 108.294 40.7465 107.296 38.4382C107.26 38.3558 107.224 38.2734 107.189 38.1909C107.168 38.1438 107.148 38.0967 107.128 38.0496C107.107 38.0025 107.087 37.9554 107.066 37.9083C107.046 37.8612 107.026 37.8141 107.005 37.767C105.543 34.387 104.081 31.0071 102.613 27.6154L99.6708 26.4417L96.4921 25.1745C92.5204 26.8929 88.5604 28.6062 84.5887 30.3246C83.4691 30.809 82.2673 30.9095 81.1538 30.6642C81.1082 30.656 81.0627 30.6477 81.0289 30.6344C80.9378 30.6178 80.8416 30.5896 80.7623 30.5679C80.7286 30.5546 80.683 30.5463 80.6493 30.533C80.5362 30.498 80.4231 30.463 80.305 30.4163C80.2881 30.4096 80.2881 30.4096 80.2712 30.4029C80.1361 30.3495 80.0129 30.291 79.8896 30.2325C79.8727 30.2258 79.8727 30.2258 79.8559 30.2191C79.7495 30.1673 79.6262 30.1088 79.5265 30.04C79.5096 30.0334 79.4877 30.0149 79.4708 30.0082C79.3593 29.9446 79.2478 29.881 79.1431 29.8005C79.138 29.7887 79.1262 29.7938 79.1262 29.7938C78.7714 29.5559 78.4366 29.2673 78.1388 28.9347C77.7108 28.4628 77.35 27.9198 77.085 27.3074C77.085 27.3074 77.0595 27.2486 77.029 27.1779C76.635 26.2997 76.3717 25.6587 76.3207 25.5409C76.2137 25.2936 75.8892 24.5112 75.1911 22.8978C75.1708 22.8507 75.1504 22.8036 75.13 22.7565C75.1096 22.7094 75.0892 22.6623 75.0689 22.6152C74.4065 21.0842 73.4333 18.8348 72.0423 15.6198L65.9212 13.1789C60.0402 15.7233 54.1592 18.2678 48.2664 20.8173L45.8547 26.9499C46.8636 29.2817 47.8725 31.6135 48.8814 33.9454C48.9017 33.9925 48.9221 34.0396 48.9425 34.0867C48.9629 34.1338 48.9833 34.1809 49.0036 34.228C50.5119 37.7139 52.0201 41.1999 53.5283 44.6858L56.4706 45.8595L59.6493 47.1267C63.6211 45.4083 67.581 43.695 71.5527 41.9766C72.6724 41.4922 73.8741 41.3917 74.9877 41.6369C75.0332 41.6452 75.0788 41.6534 75.1125 41.6668C75.2036 41.6833 75.2998 41.7116 75.3791 41.7332C75.4129 41.7466 75.4584 41.7548 75.4922 41.7682C75.6053 41.8032 75.7183 41.8381 75.8365 41.8849C75.8534 41.8915 75.8534 41.8915 75.8702 41.8982C76.0053 41.9516 76.1286 42.0102 76.2518 42.0687C76.2687 42.0754 76.2687 42.0754 76.2856 42.082C76.392 42.1339 76.5152 42.1924 76.6149 42.2611C76.6318 42.2678 76.6538 42.2863 76.6706 42.2929C76.7821 42.3566 76.8936 42.4202 76.9984 42.5007L77.0153 42.5073C77.3701 42.7453 77.7048 43.0339 78.0026 43.3664C78.4307 43.8384 78.7915 44.3813 79.0564 44.9937C79.0564 44.9937 79.0819 45.0526 79.1125 45.1233C79.5064 46.0014 79.7698 46.6425 79.8207 46.7602C79.9226 46.9958 80.2115 47.6957 80.8178 49.0971C80.8382 49.1443 80.8586 49.1914 80.879 49.2385C80.8993 49.2856 80.9197 49.3327 80.9401 49.3798C80.9997 49.5498 81.071 49.7146 81.1541 49.8744C81.8114 51.3936 82.7642 53.5959 84.1043 56.6932L90.2254 59.1341C96.1063 56.5896 101.987 54.0452 107.88 51.4956L110.292 45.363ZM88.3993 54.8489C86.7026 50.9272 85.0008 46.9938 83.304 43.0721C82.426 41.0751 80.9897 39.5015 79.2599 38.4463C79.2379 38.4279 79.2041 38.4145 79.1873 38.4078C79.02 38.3124 78.8477 38.2052 78.6687 38.1149C78.613 38.0831 78.5573 38.0513 78.5015 38.0194C78.3394 37.9358 78.1773 37.8521 78.0085 37.7854C77.9578 37.7653 77.9072 37.7453 77.8515 37.7135C77.4192 37.523 76.9787 37.378 76.5198 37.255C76.5029 37.2484 76.486 37.2417 76.4573 37.2401C76.3443 37.2051 76.2363 37.1819 76.1165 37.1638C76.0879 37.1623 76.071 37.1556 76.0541 37.1489C73.9924 36.6847 71.7809 36.8446 69.6949 37.7472C65.7349 39.4604 61.7699 41.162 57.7981 42.8804C55.2403 36.9684 52.6774 31.0447 50.1195 25.1327L67.7507 17.5045C69.4474 21.4262 71.1442 25.3478 72.846 29.2813C73.724 31.2782 75.1604 32.8518 76.8902 33.907C76.9121 33.9255 76.9459 33.9388 76.9628 33.9455C77.13 34.041 77.3023 34.1482 77.4813 34.2385C77.537 34.2703 77.5928 34.3021 77.6485 34.3339C77.8106 34.4176 77.9728 34.5012 78.1416 34.568C78.1922 34.588 78.2428 34.6081 78.2986 34.6399C78.7308 34.8304 79.1713 34.9753 79.6303 35.0983C79.6472 35.105 79.664 35.1117 79.6927 35.1133C79.8058 35.1482 79.9137 35.1714 80.0335 35.1895C80.0622 35.1911 80.0791 35.1978 80.0959 35.2045C82.1577 35.6686 84.3691 35.5088 86.4552 34.6062C90.4151 32.8929 94.3802 31.1914 98.3519 29.473C100.91 35.385 103.473 41.3087 106.031 47.2207L88.3993 54.8489Z" fill="black"/>
<path d="M92.6347 77.8802C91.7966 75.9431 90.9585 74.0059 90.1203 72.0687C90.0904 71.9995 90.0605 71.9303 90.0305 71.8611C90.0134 71.8216 89.9963 71.7821 89.9792 71.7425C89.9621 71.703 89.945 71.6635 89.9279 71.6239C89.9108 71.5844 89.8937 71.5449 89.8766 71.5053C88.6493 68.6687 87.4221 65.8322 86.1905 62.9857L83.7212 62.0007L81.0535 60.9372C77.7202 62.3793 74.3969 63.8172 71.0636 65.2594C70.124 65.6659 69.1154 65.7503 68.1809 65.5444C68.1427 65.5375 68.1045 65.5306 68.0761 65.5194C67.9997 65.5055 67.919 65.4818 67.8524 65.4636C67.8241 65.4524 67.7858 65.4455 67.7575 65.4343C67.6626 65.4049 67.5677 65.3756 67.4685 65.3364C67.4544 65.3308 67.4544 65.3308 67.4402 65.3251C67.3269 65.2803 67.2234 65.2312 67.12 65.1821C67.1058 65.1765 67.1058 65.1765 67.0916 65.1709C67.0024 65.1274 66.8989 65.0783 66.8153 65.0206C66.8011 65.015 66.7826 64.9995 66.7685 64.9939C66.6749 64.9405 66.5814 64.8871 66.4934 64.8195C66.4892 64.8097 66.4793 64.8139 66.4793 64.8139C66.1815 64.6142 65.9006 64.372 65.6507 64.0929C65.2914 63.6969 64.9886 63.2412 64.7662 62.7273C64.7662 62.7273 64.7448 62.6779 64.7192 62.6186C64.3886 61.8816 64.1676 61.3436 64.1248 61.2447C64.035 61.0372 63.7627 60.3806 63.1768 59.0265C63.1597 58.987 63.1426 58.9475 63.1255 58.9079C63.1084 58.8684 63.0913 58.8289 63.0742 58.7893C62.5183 57.5045 61.7015 55.6167 60.5341 52.9185L55.3971 50.87C50.4615 53.0054 45.526 55.1408 40.5805 57.2805L38.5565 62.4272C39.4032 64.3842 40.2499 66.3411 41.0966 68.2981C41.1137 68.3376 41.1308 68.3772 41.1479 68.4167C41.165 68.4562 41.1821 68.4958 41.1992 68.5353C42.465 71.4608 43.7307 74.3864 44.9965 77.3119L47.4658 78.2969L50.1335 79.3604C53.4667 77.9182 56.7901 76.4804 60.1233 75.0382C61.063 74.6317 62.0715 74.5473 63.0061 74.7532C63.0443 74.7601 63.0825 74.767 63.1108 74.7782C63.1873 74.7921 63.268 74.8158 63.3346 74.834C63.3629 74.8452 63.4011 74.8521 63.4295 74.8633C63.5244 74.8927 63.6193 74.922 63.7184 74.9612C63.7326 74.9668 63.7326 74.9668 63.7468 74.9725C63.8601 75.0173 63.9635 75.0664 64.067 75.1155C64.0812 75.1211 64.0812 75.1211 64.0953 75.1267C64.1846 75.1702 64.288 75.2193 64.3717 75.277C64.3859 75.2826 64.4043 75.2981 64.4185 75.3037C64.512 75.3571 64.6056 75.4105 64.6935 75.478L64.7077 75.4837C65.0055 75.6834 65.2864 75.9256 65.5363 76.2047C65.8955 76.6007 66.1984 77.0564 66.4207 77.5703C66.4207 77.5703 66.4421 77.6197 66.4678 77.679C66.7984 78.416 67.0194 78.954 67.0622 79.0529C67.1477 79.2505 67.3901 79.8379 67.899 81.0141C67.9161 81.0536 67.9332 81.0932 67.9503 81.1327C67.9674 81.1722 67.9845 81.2118 68.0016 81.2513C68.0516 81.3939 68.1114 81.5323 68.1812 81.6664C68.7328 82.9414 69.5325 84.7896 70.6571 87.389L75.7941 89.4375C80.7297 87.3021 85.6653 85.1667 90.6107 83.027L92.6347 77.8802ZM74.2617 85.8412C72.8377 82.55 71.4095 79.2488 69.9855 75.9576C69.2486 74.2817 68.0432 72.961 66.5915 72.0755C66.573 72.06 66.5447 72.0488 66.5305 72.0432C66.3902 71.9631 66.2456 71.8731 66.0954 71.7973C66.0486 71.7706 66.0018 71.7439 65.955 71.7172C65.819 71.647 65.6829 71.5768 65.5412 71.5208C65.4987 71.504 65.4562 71.4871 65.4095 71.4605C65.0467 71.3006 64.677 71.1789 64.2919 71.0757C64.2777 71.0701 64.2635 71.0645 64.2395 71.0632C64.1446 71.0338 64.054 71.0144 63.9534 70.9992C63.9294 70.9978 63.9152 70.9922 63.9011 70.9866C62.1708 70.5971 60.3148 70.7313 58.5641 71.4887C55.2408 72.9266 51.9131 74.3546 48.5799 75.7967C46.4333 70.8351 44.2823 65.8637 42.1357 60.9022L56.9325 54.5002C58.3565 57.7915 59.7804 61.0827 61.2087 64.3838C61.9455 66.0597 63.151 67.3804 64.6027 68.2659C64.6212 68.2814 64.6495 68.2926 64.6637 68.2982C64.804 68.3783 64.9486 68.4683 65.0988 68.5441C65.1456 68.5708 65.1924 68.5975 65.2392 68.6242C65.3752 68.6944 65.5113 68.7646 65.6529 68.8206C65.6954 68.8374 65.7379 68.8543 65.7847 68.881C66.1474 69.0408 66.5171 69.1625 66.9023 69.2657C66.9165 69.2713 66.9307 69.2769 66.9547 69.2782C67.0496 69.3076 67.1402 69.3271 67.2407 69.3422C67.2648 69.3436 67.279 69.3492 67.2931 69.3548C69.0234 69.7443 70.8794 69.6102 72.6301 68.8527C75.9534 67.4148 79.281 65.9869 82.6143 64.5447C84.7609 69.5063 86.9118 74.4777 89.0585 79.4393L74.2617 85.8412Z" fill="black"/>
<path d="M92.6347 77.8802C91.7966 75.9431 90.9585 74.0059 90.1203 72.0687C90.0904 71.9995 90.0605 71.9303 90.0305 71.8611C90.0134 71.8216 89.9963 71.7821 89.9792 71.7425C89.9621 71.703 89.945 71.6635 89.9279 71.6239C89.9108 71.5844 89.8937 71.5449 89.8766 71.5053C88.6493 68.6687 87.4221 65.8322 86.1905 62.9857L83.7212 62.0007L81.0535 60.9372C77.7202 62.3793 74.3969 63.8172 71.0636 65.2594C70.124 65.6659 69.1154 65.7503 68.1809 65.5444C68.1427 65.5375 68.1045 65.5306 68.0761 65.5194C67.9997 65.5055 67.919 65.4818 67.8524 65.4636C67.8241 65.4524 67.7858 65.4455 67.7575 65.4343C67.6626 65.4049 67.5677 65.3756 67.4685 65.3364C67.4544 65.3308 67.4544 65.3308 67.4402 65.3251C67.3269 65.2803 67.2234 65.2312 67.12 65.1821C67.1058 65.1765 67.1058 65.1765 67.0916 65.1709C67.0024 65.1274 66.8989 65.0783 66.8153 65.0206C66.8011 65.015 66.7826 64.9995 66.7685 64.9939C66.6749 64.9405 66.5814 64.8871 66.4934 64.8195C66.4892 64.8097 66.4793 64.8139 66.4793 64.8139C66.1815 64.6142 65.9006 64.372 65.6507 64.0929C65.2914 63.6969 64.9886 63.2412 64.7662 62.7273C64.7662 62.7273 64.7448 62.6779 64.7192 62.6186C64.3886 61.8816 64.1676 61.3436 64.1248 61.2447C64.035 61.0372 63.7627 60.3806 63.1768 59.0265C63.1597 58.987 63.1426 58.9475 63.1255 58.9079C63.1084 58.8684 63.0913 58.8289 63.0742 58.7893C62.5183 57.5045 61.7015 55.6167 60.5341 52.9185L55.3971 50.87C50.4615 53.0054 45.526 55.1408 40.5805 57.2805L38.5565 62.4272C39.4032 64.3842 40.2499 66.3411 41.0966 68.2981C41.1137 68.3376 41.1308 68.3772 41.1479 68.4167C41.165 68.4562 41.1821 68.4958 41.1992 68.5353C42.465 71.4608 43.7307 74.3864 44.9965 77.3119L47.4658 78.2969L50.1335 79.3604C53.4667 77.9182 56.7901 76.4804 60.1233 75.0382C61.063 74.6317 62.0715 74.5473 63.0061 74.7532C63.0443 74.7601 63.0825 74.767 63.1108 74.7782C63.1873 74.7921 63.268 74.8158 63.3346 74.834C63.3629 74.8452 63.4011 74.8521 63.4295 74.8633C63.5244 74.8927 63.6193 74.922 63.7184 74.9612C63.7326 74.9668 63.7326 74.9668 63.7468 74.9725C63.8601 75.0173 63.9635 75.0664 64.067 75.1155C64.0812 75.1211 64.0812 75.1211 64.0953 75.1267C64.1846 75.1702 64.288 75.2193 64.3717 75.277C64.3859 75.2826 64.4043 75.2981 64.4185 75.3037C64.512 75.3571 64.6056 75.4105 64.6935 75.478L64.7077 75.4837C65.0055 75.6834 65.2864 75.9256 65.5363 76.2047C65.8955 76.6007 66.1984 77.0564 66.4207 77.5703C66.4207 77.5703 66.4421 77.6197 66.4678 77.679C66.7984 78.416 67.0194 78.954 67.0622 79.0529C67.1477 79.2505 67.3901 79.8379 67.899 81.0141C67.9161 81.0536 67.9332 81.0932 67.9503 81.1327C67.9674 81.1722 67.9845 81.2118 68.0016 81.2513C68.0516 81.3939 68.1114 81.5323 68.1812 81.6664C68.7328 82.9414 69.5325 84.7896 70.6571 87.389L75.7941 89.4375C80.7297 87.3021 85.6653 85.1667 90.6107 83.027L92.6347 77.8802ZM74.2617 85.8412C72.8377 82.55 71.4095 79.2488 69.9855 75.9576C69.2486 74.2817 68.0432 72.961 66.5915 72.0755C66.573 72.06 66.5447 72.0488 66.5305 72.0432C66.3902 71.9631 66.2456 71.8731 66.0954 71.7973C66.0486 71.7706 66.0018 71.7439 65.955 71.7172C65.819 71.647 65.6829 71.5768 65.5412 71.5208C65.4987 71.504 65.4562 71.4871 65.4095 71.4605C65.0467 71.3006 64.677 71.1789 64.2919 71.0757C64.2777 71.0701 64.2635 71.0645 64.2395 71.0632C64.1446 71.0338 64.054 71.0144 63.9534 70.9992C63.9294 70.9978 63.9152 70.9922 63.9011 70.9866C62.1708 70.5971 60.3148 70.7313 58.5641 71.4887C55.2408 72.9266 51.9131 74.3546 48.5799 75.7967C46.4333 70.8351 44.2823 65.8637 42.1357 60.9022L56.9325 54.5002C58.3565 57.7915 59.7804 61.0827 61.2087 64.3838C61.9455 66.0597 63.151 67.3804 64.6027 68.2659C64.6212 68.2814 64.6495 68.2926 64.6637 68.2982C64.804 68.3783 64.9486 68.4683 65.0988 68.5441C65.1456 68.5708 65.1924 68.5975 65.2392 68.6242C65.3752 68.6944 65.5113 68.7646 65.6529 68.8206C65.6954 68.8374 65.7379 68.8543 65.7847 68.881C66.1474 69.0408 66.5171 69.1625 66.9023 69.2657C66.9165 69.2713 66.9307 69.2769 66.9547 69.2782C67.0496 69.3076 67.1402 69.3271 67.2407 69.3422C67.2648 69.3436 67.279 69.3492 67.2931 69.3548C69.0234 69.7443 70.8794 69.6102 72.6301 68.8527C75.9534 67.4148 79.281 65.9869 82.6143 64.5447C84.7609 69.5063 86.9118 74.4777 89.0585 79.4393L74.2617 85.8412Z" fill="black"/>
<path d="M92.6347 77.8802C91.7966 75.9431 90.9585 74.0059 90.1203 72.0687C90.0904 71.9995 90.0605 71.9303 90.0305 71.8611C90.0134 71.8216 89.9963 71.7821 89.9792 71.7425C89.9621 71.703 89.945 71.6635 89.9279 71.6239C89.9108 71.5844 89.8937 71.5449 89.8766 71.5053C88.6493 68.6687 87.4221 65.8322 86.1905 62.9857L83.7212 62.0007L81.0535 60.9372C77.7202 62.3793 74.3969 63.8172 71.0636 65.2594C70.124 65.6659 69.1154 65.7503 68.1809 65.5444C68.1427 65.5375 68.1045 65.5306 68.0761 65.5194C67.9997 65.5055 67.919 65.4818 67.8524 65.4636C67.8241 65.4524 67.7858 65.4455 67.7575 65.4343C67.6626 65.4049 67.5677 65.3756 67.4685 65.3364C67.4544 65.3308 67.4544 65.3308 67.4402 65.3251C67.3269 65.2803 67.2234 65.2312 67.12 65.1821C67.1058 65.1765 67.1058 65.1765 67.0916 65.1709C67.0024 65.1274 66.8989 65.0783 66.8153 65.0206C66.8011 65.015 66.7826 64.9995 66.7685 64.9939C66.6749 64.9405 66.5814 64.8871 66.4934 64.8195C66.4892 64.8097 66.4793 64.8139 66.4793 64.8139C66.1815 64.6142 65.9006 64.372 65.6507 64.0929C65.2914 63.6969 64.9886 63.2412 64.7662 62.7273C64.7662 62.7273 64.7448 62.6779 64.7192 62.6186C64.3886 61.8816 64.1676 61.3436 64.1248 61.2447C64.035 61.0372 63.7627 60.3806 63.1768 59.0265C63.1597 58.987 63.1426 58.9475 63.1255 58.9079C63.1084 58.8684 63.0913 58.8289 63.0742 58.7893C62.5183 57.5045 61.7015 55.6167 60.5341 52.9185L55.3971 50.87C50.4615 53.0054 45.526 55.1408 40.5805 57.2805L38.5565 62.4272C39.4032 64.3842 40.2499 66.3411 41.0966 68.2981C41.1137 68.3376 41.1308 68.3772 41.1479 68.4167C41.165 68.4562 41.1821 68.4958 41.1992 68.5353C42.465 71.4608 43.7307 74.3864 44.9965 77.3119L47.4658 78.2969L50.1335 79.3604C53.4667 77.9182 56.7901 76.4804 60.1233 75.0382C61.063 74.6317 62.0715 74.5473 63.0061 74.7532C63.0443 74.7601 63.0825 74.767 63.1108 74.7782C63.1873 74.7921 63.268 74.8158 63.3346 74.834C63.3629 74.8452 63.4011 74.8521 63.4295 74.8633C63.5244 74.8927 63.6193 74.922 63.7184 74.9612C63.7326 74.9668 63.7326 74.9668 63.7468 74.9725C63.8601 75.0173 63.9635 75.0664 64.067 75.1155C64.0812 75.1211 64.0812 75.1211 64.0953 75.1267C64.1846 75.1702 64.288 75.2193 64.3717 75.277C64.3859 75.2826 64.4043 75.2981 64.4185 75.3037C64.512 75.3571 64.6056 75.4105 64.6935 75.478L64.7077 75.4837C65.0055 75.6834 65.2864 75.9256 65.5363 76.2047C65.8955 76.6007 66.1984 77.0564 66.4207 77.5703C66.4207 77.5703 66.4421 77.6197 66.4678 77.679C66.7984 78.416 67.0194 78.954 67.0622 79.0529C67.1477 79.2505 67.3901 79.8379 67.899 81.0141C67.9161 81.0536 67.9332 81.0932 67.9503 81.1327C67.9674 81.1722 67.9845 81.2118 68.0016 81.2513C68.0516 81.3939 68.1114 81.5323 68.1812 81.6664C68.7328 82.9414 69.5325 84.7896 70.6571 87.389L75.7941 89.4375C80.7297 87.3021 85.6653 85.1667 90.6107 83.027L92.6347 77.8802ZM74.2617 85.8412C72.8377 82.55 71.4095 79.2488 69.9855 75.9576C69.2486 74.2817 68.0432 72.961 66.5915 72.0755C66.573 72.06 66.5447 72.0488 66.5305 72.0432C66.3902 71.9631 66.2456 71.8731 66.0954 71.7973C66.0486 71.7706 66.0018 71.7439 65.955 71.7172C65.819 71.647 65.6829 71.5768 65.5412 71.5208C65.4987 71.504 65.4562 71.4871 65.4095 71.4605C65.0467 71.3006 64.677 71.1789 64.2919 71.0757C64.2777 71.0701 64.2635 71.0645 64.2395 71.0632C64.1446 71.0338 64.054 71.0144 63.9534 70.9992C63.9294 70.9978 63.9152 70.9922 63.9011 70.9866C62.1708 70.5971 60.3148 70.7313 58.5641 71.4887C55.2408 72.9266 51.9131 74.3546 48.5799 75.7967C46.4333 70.8351 44.2823 65.8637 42.1357 60.9022L56.9325 54.5002C58.3565 57.7915 59.7804 61.0827 61.2087 64.3838C61.9455 66.0597 63.151 67.3804 64.6027 68.2659C64.6212 68.2814 64.6495 68.2926 64.6637 68.2982C64.804 68.3783 64.9486 68.4683 65.0988 68.5441C65.1456 68.5708 65.1924 68.5975 65.2392 68.6242C65.3752 68.6944 65.5113 68.7646 65.6529 68.8206C65.6954 68.8374 65.7379 68.8543 65.7847 68.881C66.1474 69.0408 66.5171 69.1625 66.9023 69.2657C66.9165 69.2713 66.9307 69.2769 66.9547 69.2782C67.0496 69.3076 67.1402 69.3271 67.2407 69.3422C67.2648 69.3436 67.279 69.3492 67.2931 69.3548C69.0234 69.7443 70.8794 69.6102 72.6301 68.8527C75.9534 67.4148 79.281 65.9869 82.6143 64.5447C84.7609 69.5063 86.9118 74.4777 89.0585 79.4393L74.2617 85.8412Z" fill="black"/>
<path d="M74.1121 103.746C73.5078 102.349 72.9035 100.953 72.2992 99.5559C72.2776 99.506 72.2561 99.4562 72.2345 99.4063C72.2221 99.3778 72.2098 99.3493 72.1975 99.3208C72.1852 99.2923 72.1728 99.2638 72.1605 99.2353C72.1482 99.2068 72.1358 99.1783 72.1235 99.1498C71.2386 97.1046 70.3538 95.0595 69.4659 93.0072L67.6855 92.297L65.7621 91.5302C63.3589 92.57 60.9628 93.6067 58.5595 94.6465C57.8821 94.9396 57.1549 95.0004 56.4811 94.852C56.4536 94.847 56.426 94.842 56.4056 94.8339C56.3505 94.8239 56.2923 94.8068 56.2443 94.7937C56.2238 94.7857 56.1963 94.7807 56.1759 94.7726C56.1074 94.7514 56.039 94.7303 55.9675 94.702C55.9573 94.6979 55.9573 94.6979 55.9471 94.6939C55.8654 94.6616 55.7908 94.6262 55.7162 94.5908C55.706 94.5867 55.706 94.5867 55.6958 94.5827C55.6314 94.5513 55.5568 94.5159 55.4965 94.4743C55.4863 94.4703 55.473 94.4591 55.4628 94.4551C55.3953 94.4166 55.3279 94.3781 55.2645 94.3294C55.2614 94.3222 55.2543 94.3253 55.2543 94.3253C55.0396 94.1813 54.837 94.0067 54.6568 93.8055C54.3978 93.5199 54.1795 93.1914 54.0192 92.8209C54.0192 92.8209 54.0038 92.7852 53.9853 92.7425C53.7469 92.2111 53.5875 91.8232 53.5567 91.752C53.492 91.6023 53.2956 91.1289 52.8732 90.1527C52.8609 90.1242 52.8486 90.0957 52.8362 90.0672C52.8239 90.0387 52.8116 90.0101 52.7992 89.9816C52.3984 89.0553 51.8096 87.6942 50.9679 85.7488L47.2641 84.2719C43.7056 85.8115 40.1471 87.3511 36.5815 88.8938L35.1223 92.6045C35.7327 94.0155 36.3432 95.4264 36.9536 96.8374C36.9659 96.8659 36.9783 96.8944 36.9906 96.9229C37.0029 96.9514 37.0153 96.9799 37.0276 97.0084C37.9402 99.1177 38.8528 101.227 39.7654 103.336L41.5458 104.046L43.4691 104.813C45.8724 103.773 48.2685 102.737 50.6717 101.697C51.3492 101.404 52.0763 101.343 52.7501 101.491C52.7777 101.496 52.8052 101.501 52.8257 101.509C52.8808 101.519 52.939 101.537 52.987 101.55C53.0074 101.558 53.035 101.563 53.0554 101.571C53.1238 101.592 53.1922 101.613 53.2637 101.641C53.2739 101.645 53.2739 101.645 53.2842 101.65C53.3659 101.682 53.4405 101.717 53.515 101.753C53.5252 101.757 53.5252 101.757 53.5355 101.761C53.5998 101.792 53.6744 101.828 53.7347 101.869C53.745 101.873 53.7582 101.884 53.7685 101.888C53.8359 101.927 53.9034 101.965 53.9668 102.014L53.977 102.018C54.1917 102.162 54.3942 102.337 54.5744 102.538C54.8334 102.823 55.0517 103.152 55.2121 103.523C55.2121 103.523 55.2275 103.558 55.246 103.601C55.4843 104.132 55.6437 104.52 55.6745 104.591C55.7362 104.734 55.911 105.157 56.2778 106.005C56.2902 106.034 56.3025 106.062 56.3148 106.091C56.3272 106.119 56.3395 106.148 56.3518 106.176C56.3879 106.279 56.431 106.379 56.4813 106.476C56.8791 107.395 57.4556 108.728 58.2664 110.602L61.9702 112.079C65.5287 110.539 69.0872 108.999 72.6528 107.457L74.1121 103.746ZM60.8653 109.486C59.8386 107.113 58.8089 104.733 57.7822 102.36C57.251 101.151 56.3818 100.199 55.3352 99.5608C55.3219 99.5497 55.3014 99.5416 55.2912 99.5375C55.19 99.4798 55.0858 99.4149 54.9775 99.3603C54.9437 99.341 54.91 99.3218 54.8763 99.3025C54.7782 99.2519 54.6801 99.2013 54.578 99.1609C54.5473 99.1488 54.5167 99.1366 54.4829 99.1174C54.2214 99.0021 53.9549 98.9144 53.6772 98.84C53.667 98.8359 53.6567 98.8319 53.6394 98.8309C53.571 98.8098 53.5056 98.7958 53.4332 98.7848C53.4158 98.7839 53.4056 98.7798 53.3954 98.7758C52.1479 98.4949 50.8098 98.5917 49.5475 99.1378C47.1514 100.174 44.7522 101.204 42.349 102.244C40.8013 98.6666 39.2505 95.0822 37.7028 91.505L48.3712 86.8892C49.3978 89.2622 50.4245 91.6351 51.4542 94.0152C51.9855 95.2235 52.8546 96.1757 53.9013 96.8142C53.9146 96.8253 53.935 96.8334 53.9452 96.8375C54.0464 96.8952 54.1507 96.9601 54.259 97.0147C54.2927 97.034 54.3264 97.0532 54.3602 97.0725C54.4583 97.1231 54.5563 97.1737 54.6585 97.2141C54.6891 97.2262 54.7198 97.2384 54.7535 97.2576C55.015 97.3729 55.2816 97.4606 55.5593 97.535C55.5695 97.539 55.5797 97.5431 55.5971 97.544C55.6655 97.5652 55.7308 97.5792 55.8033 97.5902C55.8206 97.5911 55.8308 97.5952 55.841 97.5992C57.0886 97.8801 58.4267 97.7833 59.6889 97.2372C62.085 96.2005 64.4842 95.171 66.8874 94.1312C68.4351 97.7084 69.9859 101.293 71.5336 104.87L60.8653 109.486Z" fill="black"/>
<path d="M74.1121 103.746C73.5078 102.349 72.9035 100.953 72.2992 99.5559C72.2776 99.506 72.2561 99.4562 72.2345 99.4063C72.2221 99.3778 72.2098 99.3493 72.1975 99.3208C72.1852 99.2923 72.1728 99.2638 72.1605 99.2353C72.1482 99.2068 72.1358 99.1783 72.1235 99.1498C71.2386 97.1046 70.3538 95.0595 69.4659 93.0072L67.6855 92.297L65.7621 91.5302C63.3589 92.57 60.9628 93.6067 58.5595 94.6465C57.8821 94.9396 57.1549 95.0004 56.4811 94.852C56.4536 94.847 56.426 94.842 56.4056 94.8339C56.3505 94.8239 56.2923 94.8068 56.2443 94.7937C56.2238 94.7857 56.1963 94.7807 56.1759 94.7726C56.1074 94.7514 56.039 94.7303 55.9675 94.702C55.9573 94.6979 55.9573 94.6979 55.9471 94.6939C55.8654 94.6616 55.7908 94.6262 55.7162 94.5908C55.706 94.5867 55.706 94.5867 55.6958 94.5827C55.6314 94.5513 55.5568 94.5159 55.4965 94.4743C55.4863 94.4703 55.473 94.4591 55.4628 94.4551C55.3953 94.4166 55.3279 94.3781 55.2645 94.3294C55.2614 94.3222 55.2543 94.3253 55.2543 94.3253C55.0396 94.1813 54.837 94.0067 54.6568 93.8055C54.3978 93.5199 54.1795 93.1914 54.0192 92.8209C54.0192 92.8209 54.0038 92.7852 53.9853 92.7425C53.7469 92.2111 53.5875 91.8232 53.5567 91.752C53.492 91.6023 53.2956 91.1289 52.8732 90.1527C52.8609 90.1242 52.8486 90.0957 52.8362 90.0672C52.8239 90.0387 52.8116 90.0101 52.7992 89.9816C52.3984 89.0553 51.8096 87.6942 50.9679 85.7488L47.2641 84.2719C43.7056 85.8115 40.1471 87.3511 36.5815 88.8938L35.1223 92.6045C35.7327 94.0155 36.3432 95.4264 36.9536 96.8374C36.9659 96.8659 36.9783 96.8944 36.9906 96.9229C37.0029 96.9514 37.0153 96.9799 37.0276 97.0084C37.9402 99.1177 38.8528 101.227 39.7654 103.336L41.5458 104.046L43.4691 104.813C45.8724 103.773 48.2685 102.737 50.6717 101.697C51.3492 101.404 52.0763 101.343 52.7501 101.491C52.7777 101.496 52.8052 101.501 52.8257 101.509C52.8808 101.519 52.939 101.537 52.987 101.55C53.0074 101.558 53.035 101.563 53.0554 101.571C53.1238 101.592 53.1922 101.613 53.2637 101.641C53.2739 101.645 53.2739 101.645 53.2842 101.65C53.3659 101.682 53.4405 101.717 53.515 101.753C53.5252 101.757 53.5252 101.757 53.5355 101.761C53.5998 101.792 53.6744 101.828 53.7347 101.869C53.745 101.873 53.7582 101.884 53.7685 101.888C53.8359 101.927 53.9034 101.965 53.9668 102.014L53.977 102.018C54.1917 102.162 54.3942 102.337 54.5744 102.538C54.8334 102.823 55.0517 103.152 55.2121 103.523C55.2121 103.523 55.2275 103.558 55.246 103.601C55.4843 104.132 55.6437 104.52 55.6745 104.591C55.7362 104.734 55.911 105.157 56.2778 106.005C56.2902 106.034 56.3025 106.062 56.3148 106.091C56.3272 106.119 56.3395 106.148 56.3518 106.176C56.3879 106.279 56.431 106.379 56.4813 106.476C56.8791 107.395 57.4556 108.728 58.2664 110.602L61.9702 112.079C65.5287 110.539 69.0872 108.999 72.6528 107.457L74.1121 103.746ZM60.8653 109.486C59.8386 107.113 58.8089 104.733 57.7822 102.36C57.251 101.151 56.3818 100.199 55.3352 99.5608C55.3219 99.5497 55.3014 99.5416 55.2912 99.5375C55.19 99.4798 55.0858 99.4149 54.9775 99.3603C54.9437 99.341 54.91 99.3218 54.8763 99.3025C54.7782 99.2519 54.6801 99.2013 54.578 99.1609C54.5473 99.1488 54.5167 99.1366 54.4829 99.1174C54.2214 99.0021 53.9549 98.9144 53.6772 98.84C53.667 98.8359 53.6567 98.8319 53.6394 98.8309C53.571 98.8098 53.5056 98.7958 53.4332 98.7848C53.4158 98.7839 53.4056 98.7798 53.3954 98.7758C52.1479 98.4949 50.8098 98.5917 49.5475 99.1378C47.1514 100.174 44.7522 101.204 42.349 102.244C40.8013 98.6666 39.2505 95.0822 37.7028 91.505L48.3712 86.8892C49.3978 89.2622 50.4245 91.6351 51.4542 94.0152C51.9855 95.2235 52.8546 96.1757 53.9013 96.8142C53.9146 96.8253 53.935 96.8334 53.9452 96.8375C54.0464 96.8952 54.1507 96.9601 54.259 97.0147C54.2927 97.034 54.3264 97.0532 54.3602 97.0725C54.4583 97.1231 54.5563 97.1737 54.6585 97.2141C54.6891 97.2262 54.7198 97.2384 54.7535 97.2576C55.015 97.3729 55.2816 97.4606 55.5593 97.535C55.5695 97.539 55.5797 97.5431 55.5971 97.544C55.6655 97.5652 55.7308 97.5792 55.8033 97.5902C55.8206 97.5911 55.8308 97.5952 55.841 97.5992C57.0886 97.8801 58.4267 97.7833 59.6889 97.2372C62.085 96.2005 64.4842 95.171 66.8874 94.1312C68.4351 97.7084 69.9859 101.293 71.5336 104.87L60.8653 109.486Z" fill="black"/>
<path d="M74.1121 103.746C73.5078 102.349 72.9035 100.953 72.2992 99.5559C72.2776 99.506 72.2561 99.4562 72.2345 99.4063C72.2221 99.3778 72.2098 99.3493 72.1975 99.3208C72.1852 99.2923 72.1728 99.2638 72.1605 99.2353C72.1482 99.2068 72.1358 99.1783 72.1235 99.1498C71.2386 97.1046 70.3538 95.0595 69.4659 93.0072L67.6855 92.297L65.7621 91.5302C63.3589 92.57 60.9628 93.6067 58.5595 94.6465C57.8821 94.9396 57.1549 95.0004 56.4811 94.852C56.4536 94.847 56.426 94.842 56.4056 94.8339C56.3505 94.8239 56.2923 94.8068 56.2443 94.7937C56.2238 94.7857 56.1963 94.7807 56.1759 94.7726C56.1074 94.7514 56.039 94.7303 55.9675 94.702C55.9573 94.6979 55.9573 94.6979 55.9471 94.6939C55.8654 94.6616 55.7908 94.6262 55.7162 94.5908C55.706 94.5867 55.706 94.5867 55.6958 94.5827C55.6314 94.5513 55.5568 94.5159 55.4965 94.4743C55.4863 94.4703 55.473 94.4591 55.4628 94.4551C55.3953 94.4166 55.3279 94.3781 55.2645 94.3294C55.2614 94.3222 55.2543 94.3253 55.2543 94.3253C55.0396 94.1813 54.837 94.0067 54.6568 93.8055C54.3978 93.5199 54.1795 93.1914 54.0192 92.8209C54.0192 92.8209 54.0038 92.7852 53.9853 92.7425C53.7469 92.2111 53.5875 91.8232 53.5567 91.752C53.492 91.6023 53.2956 91.1289 52.8732 90.1527C52.8609 90.1242 52.8486 90.0957 52.8362 90.0672C52.8239 90.0387 52.8116 90.0101 52.7992 89.9816C52.3984 89.0553 51.8096 87.6942 50.9679 85.7488L47.2641 84.2719C43.7056 85.8115 40.1471 87.3511 36.5815 88.8938L35.1223 92.6045C35.7327 94.0155 36.3432 95.4264 36.9536 96.8374C36.9659 96.8659 36.9783 96.8944 36.9906 96.9229C37.0029 96.9514 37.0153 96.9799 37.0276 97.0084C37.9402 99.1177 38.8528 101.227 39.7654 103.336L41.5458 104.046L43.4691 104.813C45.8724 103.773 48.2685 102.737 50.6717 101.697C51.3492 101.404 52.0763 101.343 52.7501 101.491C52.7777 101.496 52.8052 101.501 52.8257 101.509C52.8808 101.519 52.939 101.537 52.987 101.55C53.0074 101.558 53.035 101.563 53.0554 101.571C53.1238 101.592 53.1922 101.613 53.2637 101.641C53.2739 101.645 53.2739 101.645 53.2842 101.65C53.3659 101.682 53.4405 101.717 53.515 101.753C53.5252 101.757 53.5252 101.757 53.5355 101.761C53.5998 101.792 53.6744 101.828 53.7347 101.869C53.745 101.873 53.7582 101.884 53.7685 101.888C53.8359 101.927 53.9034 101.965 53.9668 102.014L53.977 102.018C54.1917 102.162 54.3942 102.337 54.5744 102.538C54.8334 102.823 55.0517 103.152 55.2121 103.523C55.2121 103.523 55.2275 103.558 55.246 103.601C55.4843 104.132 55.6437 104.52 55.6745 104.591C55.7362 104.734 55.911 105.157 56.2778 106.005C56.2902 106.034 56.3025 106.062 56.3148 106.091C56.3272 106.119 56.3395 106.148 56.3518 106.176C56.3879 106.279 56.431 106.379 56.4813 106.476C56.8791 107.395 57.4556 108.728 58.2664 110.602L61.9702 112.079C65.5287 110.539 69.0872 108.999 72.6528 107.457L74.1121 103.746ZM60.8653 109.486C59.8386 107.113 58.8089 104.733 57.7822 102.36C57.251 101.151 56.3818 100.199 55.3352 99.5608C55.3219 99.5497 55.3014 99.5416 55.2912 99.5375C55.19 99.4798 55.0858 99.4149 54.9775 99.3603C54.9437 99.341 54.91 99.3218 54.8763 99.3025C54.7782 99.2519 54.6801 99.2013 54.578 99.1609C54.5473 99.1488 54.5167 99.1366 54.4829 99.1174C54.2214 99.0021 53.9549 98.9144 53.6772 98.84C53.667 98.8359 53.6567 98.8319 53.6394 98.8309C53.571 98.8098 53.5056 98.7958 53.4332 98.7848C53.4158 98.7839 53.4056 98.7798 53.3954 98.7758C52.1479 98.4949 50.8098 98.5917 49.5475 99.1378C47.1514 100.174 44.7522 101.204 42.349 102.244C40.8013 98.6666 39.2505 95.0822 37.7028 91.505L48.3712 86.8892C49.3978 89.2622 50.4245 91.6351 51.4542 94.0152C51.9855 95.2235 52.8546 96.1757 53.9013 96.8142C53.9146 96.8253 53.935 96.8334 53.9452 96.8375C54.0464 96.8952 54.1507 96.9601 54.259 97.0147C54.2927 97.034 54.3264 97.0532 54.3602 97.0725C54.4583 97.1231 54.5563 97.1737 54.6585 97.2141C54.6891 97.2262 54.7198 97.2384 54.7535 97.2576C55.015 97.3729 55.2816 97.4606 55.5593 97.535C55.5695 97.539 55.5797 97.5431 55.5971 97.544C55.6655 97.5652 55.7308 97.5792 55.8033 97.5902C55.8206 97.5911 55.8308 97.5952 55.841 97.5992C57.0886 97.8801 58.4267 97.7833 59.6889 97.2372C62.085 96.2005 64.4842 95.171 66.8874 94.1312C68.4351 97.7084 69.9859 101.293 71.5336 104.87L60.8653 109.486Z" fill="black"/>
<defs>
<filter id="filter0_d_307_17" x="0" y="0.558105" width="133" height="133" filterUnits="userSpaceOnUse" color-interpolation-filters="sRGB">
<feFlood flood-opacity="0" result="BackgroundImageFix"/>
<feColorMatrix in="SourceAlpha" type="matrix" values="0 0 0 0 0 0 0 0 0 0 0 0 0 0 0 0 0 0 127 0" result="hardAlpha"/>
<feOffset dy="4"/>
<feGaussianBlur stdDeviation="2"/>
<feComposite in2="hardAlpha" operator="out"/>
<feColorMatrix type="matrix" values="0 0 0 0 0 0 0 0 0 0 0 0 0 0 0 0 0 0 0.25 0"/>
<feBlend mode="normal" in2="BackgroundImageFix" result="effect1_dropShadow_307_17"/>
<feBlend mode="normal" in="SourceGraphic" in2="effect1_dropShadow_307_17" result="shape"/>
</filter>
</defs>
</svg>
